<svg xmlns="http://www.w3.org/2000/svg" version="1.1" xmlns:xlink="http://www.w3.org/1999/xlink" xmlns:svgjs="http://svgjs.com/svgjs" width="1440" height="560" preserveAspectRatio="none" viewBox="0 0 1440 560">
    <g mask="url(&quot;#SvgjsMask1000&quot;)" fill="none">
        <rect width="1440" height="560" x="0" y="0" fill="#0e2a47"></rect>
        <path d="M 0,198 C 57.6,165 172.8,18 288,33 C 403.2,48 460.8,274 576,273 C 691.2,272 748.8,36.2 864,28 C 979.2,19.8 1036.8,237.4 1152,232 C 1267.2,226.6 1382.4,47.2 1440,1L1440 560L0 560z" fill="#184a7e"></path>
        <path d="M 0,368 C 96,395.8 288,518.2 480,507 C 672,495.8 768,305.2 960,312 C 1152,318.8 1344,495.2 1440,541L1440 560L0 560z" fill="#2264ab"></path>
    </g>
    <defs>
        <mask id="SvgjsMask1000">
            <rect width="1440" height="560" fill="#ffffff"></rect>
        </mask>
    </defs>
</svg>